<?xml version="1.0" encoding="UTF-8" standalone="no"?>
<!DOCTYPE svg PUBLIC "-//W3C//DTD SVG 1.1//EN" "http://www.w3.org/Graphics/SVG/1.1/DTD/svg11.dtd">
<svg width="100%" height="100%" viewBox="0 0 500 439" version="1.1" xmlns="http://www.w3.org/2000/svg" xmlns:xlink="http://www.w3.org/1999/xlink" xml:space="preserve" xmlns:serif="http://www.serif.com/" style="fill-rule:evenodd;clip-rule:evenodd;stroke-linejoin:round;stroke-miterlimit:2;">
    <g transform="matrix(1,0,0,1,-731,-780.774)">
        <g transform="matrix(0.837817,0,0,1,611.625,-92.7849)">
            <g transform="matrix(-0.286433,-2.68911e-17,3.20967e-17,-0.239979,1052.3,1605.27)">
                <g>
                    <path d="M2041.83,1971.79L2227.71,1971.98L2318.86,2133.05L2226.76,2295.74L2041.17,2295.31L1948.99,2133.62L2041.83,1971.79Z" style="fill:url(#_Linear1);"/>
                    <path d="M1919.39,1389.09L1820.99,1220.24L1626.11,1223.36L1526.6,1397.45L1620.73,1570.48L1814.64,1567.51L1837.17,1530.97L1958.69,1604.38L1942.08,1641.63L2037.49,1810.44L2240.06,1807.67L2337.94,1627.53L2245.11,1460.8L2049.6,1461.64L2021.55,1494.29L1897.47,1426.53L1919.39,1389.09ZM1631.22,1387.92L1676.31,1467.73L1766.12,1467.89L1812.16,1388.41L1766.25,1309.02L1675.88,1308.75L1631.22,1387.92Z" style="fill:url(#_Linear2);"/>
                    <g transform="matrix(-1,1.22465e-16,-1.22465e-16,-1,4265.46,4265.44)">
                        <path d="M1925.39,1395.28L1820.99,1216.74L1626.11,1216.36L1525.5,1395.28L1620.73,1571.44L1813.64,1571.44L1839.34,1541.14L1954.53,1612.72L1942.08,1641.63L2034.49,1805.44L2245.06,1805.67L2337.94,1627.53L2245.11,1460.8L2049.6,1461.64L2021.55,1502.63L1909.64,1426.53L1925.39,1395.28ZM1630.22,1395.28L1676.46,1479.44L1760.46,1479.44L1814.16,1395.28L1768.46,1305.44L1676.46,1305.44L1630.22,1395.28Z" style="fill:url(#_Linear3);"/>
                    </g>
                    <path d="M2508,2051L2508,2207L2462.46,2207L2369.7,2385.16L2477.83,2555.2L2668.66,2554.81L2770.68,2385.16L2746.72,2344.03L2871.49,2269.36L2890.25,2301L3084.63,2300.42L3176.36,2128.45L3072.31,1960L2883.34,1960L2783.41,2125.93L2804.84,2159.31L2679.88,2234.69L2662.36,2207L2627,2207L2627,2051L2668.91,2051L2772.03,1878.08L2676.4,1710.88L2627,1710.88L2627,1556L2675.13,1556L2771.15,1391.16L2671.01,1223.29L2470.49,1224.16L2367.7,1391.16L2465.74,1556L2507.94,1556L2508,1710.88L2466.76,1710.88L2367.7,1877.1L2461.96,2051L2508,2051ZM3025.94,2051L2941.27,2051L2894.61,2134.47L2941.81,2207L3033.51,2207L3073.54,2133.5L3025.94,2051ZM2531.05,1309.16L2484.48,1391.16L2529.24,1468.16L2621.1,1468.16L2666.9,1391.16L2621.94,1309.1L2531.05,1309.16Z" style="fill:url(#_Linear4);"/>
                    <g transform="matrix(-4.16704,4.66943e-16,-4.66943e-16,-4.16704,7364.23,6689.23)">
                        <path d="M1372.97,1071.56L1383.55,1071.56L1407.06,1030.79L1383.67,991.408L1372.97,991.408L1372.97,956.131L1384.08,956.131L1405.15,916L1383.34,873.65L1335.21,873.858L1310.53,916L1335.27,956.131L1344.18,956.131L1344.18,991.408L1333.12,991.408L1309.49,1029.59L1333.41,1071.56L1344.18,1071.56L1344.18,1109.96L1334.48,1109.96L1309.22,1151.48L1335.07,1194.7L1380.37,1194.7L1403.94,1154.16L1399.31,1145.62L1431.46,1126.19L1437.05,1134.91L1479.52,1134.91L1505,1093.28L1480.84,1053.08L1433.6,1053.08L1411.48,1093L1415.64,1099.88L1384.82,1118.95L1380.14,1110.32L1372.97,1109.96L1372.97,1071.56ZM1470.09,1075.36L1448.1,1075.36L1437.02,1092.77L1447.75,1113.08L1470,1113.08L1482.14,1093L1470.09,1075.36ZM1346.7,934.859L1370,935L1381.08,913.049L1369,894L1347.41,894L1334.55,913.298L1346.7,934.859Z" style="fill:url(#_Linear5);"/>
                    </g>
                </g>
            </g>
        </g>
    </g>
    <defs>
        <linearGradient id="_Linear1" x1="0" y1="0" x2="1" y2="0" gradientUnits="userSpaceOnUse" gradientTransform="matrix(-1637.65,1579.31,-1579.31,-1637.65,2851.33,1330.43)"><stop offset="0" style="stop-color:rgb(171,94,206);stop-opacity:1"/><stop offset="1" style="stop-color:rgb(1,197,255);stop-opacity:1"/></linearGradient>
        <linearGradient id="_Linear2" x1="0" y1="0" x2="1" y2="0" gradientUnits="userSpaceOnUse" gradientTransform="matrix(-1637.65,1579.31,-1579.31,-1637.65,2851.33,1330.43)"><stop offset="0" style="stop-color:rgb(171,94,206);stop-opacity:1"/><stop offset="1" style="stop-color:rgb(1,197,255);stop-opacity:1"/></linearGradient>
        <linearGradient id="_Linear3" x1="0" y1="0" x2="1" y2="0" gradientUnits="userSpaceOnUse" gradientTransform="matrix(1637.65,-1579.31,1579.31,1637.65,1414.13,2935.01)"><stop offset="0" style="stop-color:rgb(171,94,206);stop-opacity:1"/><stop offset="1" style="stop-color:rgb(1,197,255);stop-opacity:1"/></linearGradient>
        <linearGradient id="_Linear4" x1="0" y1="0" x2="1" y2="0" gradientUnits="userSpaceOnUse" gradientTransform="matrix(-1637.65,1579.31,-1579.31,-1637.65,2851.33,1330.43)"><stop offset="0" style="stop-color:rgb(171,94,206);stop-opacity:1"/><stop offset="1" style="stop-color:rgb(1,197,255);stop-opacity:1"/></linearGradient>
        <linearGradient id="_Linear5" x1="0" y1="0" x2="1" y2="0" gradientUnits="userSpaceOnUse" gradientTransform="matrix(393,-379,379,393,1083,1286)"><stop offset="0" style="stop-color:rgb(171,94,206);stop-opacity:1"/><stop offset="1" style="stop-color:rgb(1,197,255);stop-opacity:1"/></linearGradient>
    </defs>
</svg>
