<svg
  width="100%"
  height="100%"
  viewBox="0 0 510 440"
  version="1.1"
  xmlns="http://www.w3.org/2000/svg"
  xmlns:xlink="http://www.w3.org/1999/xlink"
  xml:space="preserve"
  style="fill-rule:evenodd;clip-rule:evenodd;stroke-linecap:round;stroke-miterlimit:1.5;"
>
  <g transform="matrix(1,0,0,1,-726.043,-768.267)">
    <g transform="matrix(1,0,0,1.23637,672.282,-1958.97)">
      <g transform="matrix(0.837817,0,0,0.808818,-60.833,1499.36)">
        <g transform="matrix(1.19358,0,0,1,72.6275,93.7737)">
          <path
            d="M353.249,1000L330.983,1038.57L286.453,1038.57L264.187,1000L286.453,961.435L330.983,961.435L353.249,1000Z"
            style="fill:none;stroke:rgb(23,24,26);stroke-width:3px;"
          />
        </g>
        <g transform="matrix(1.19358,0,0,1,72.6275,93.4056)">
          <path
            d="M335.686,1149.62L330.983,1157.76L286.453,1157.76L264.187,1119.2L286.453,1080.63L330.983,1080.63L353.249,1119.2L349.272,1126.08L386.249,1147.43L390.483,1140.1L435.014,1140.1L457.279,1178.66L435.014,1217.23L390.483,1217.23L368.218,1178.66L372.663,1170.96L335.686,1149.62ZM434.029,1178.66L423.389,1197.09L402.109,1197.09L391.469,1178.66L402.109,1160.23L423.389,1160.23L434.029,1178.66Z"
            style="fill:none;stroke:rgb(23,24,26);stroke-width:3px;"
          />
        </g>
        <g
          transform="matrix(-1.19358,-1.22465e-16,1.46171e-16,-1,809.586,2094.14)"
        >
          <path
            d="M335.686,1149.62L330.983,1157.76L286.453,1157.76L264.187,1119.2L286.453,1080.63L330.983,1080.63L353.249,1119.2L349.272,1126.08L386.249,1147.43L390.483,1140.1L435.014,1140.1L457.279,1178.66L435.014,1217.23L390.483,1217.23L368.218,1178.66L372.663,1170.96L335.686,1149.62ZM434.029,1178.66L423.389,1197.09L402.109,1197.09L391.469,1178.66L402.109,1160.23L423.389,1160.23L434.029,1178.66Z"
            style="fill:none;stroke:rgb(23,24,26);stroke-width:3px;"
          />
        </g>
        <g transform="matrix(1.19358,0,0,1,72.5903,94.2236)">
          <path
            d="M398.915,1020.42L398.915,977.276L390.675,977.276L368.41,938.711L390.675,900.146L398.915,900.146L398.915,859.079L390.721,859.079L368.456,820.515L390.721,781.95L435.252,781.95L457.517,820.515L435.252,859.079L426.087,859.079L426.087,900.146L435.206,900.146L457.471,938.711L435.206,977.276L426.087,977.276L426.087,1020.42L435.206,1020.42L439.182,1027.3L476.159,1005.96L471.925,998.62L494.19,960.056L538.721,960.056L560.986,998.62L538.721,1037.18L494.19,1037.18L489.745,1029.49L452.768,1050.83L457.471,1058.98L435.206,1097.55L390.675,1097.55L368.41,1058.98L390.675,1020.42L398.915,1020.42ZM527.095,980.191L537.735,998.62L527.095,1017.05L505.815,1017.05L495.176,998.62L505.815,980.191L527.095,980.191ZM434.267,820.515L423.627,838.944L402.347,838.944L391.707,820.515L402.347,802.086L423.627,802.086L434.267,820.515Z"
            style="fill:none;stroke:rgb(23,24,26);stroke-width:3px;"
          />
        </g>
        <g
          transform="matrix(-1.19358,-1.22465e-16,1.46171e-16,-1,809.586,2093.42)"
        >
          <path
            d="M398.915,1020.42L398.915,979.276L390.675,979.276L368.41,940.711L390.675,902.146L398.915,902.146L398.915,860.079L390.721,860.079L368.456,821.515L390.721,782.95L435.252,782.95L457.517,821.515L435.252,860.079L426.087,860.079L426.087,902.146L435.206,902.146L457.471,940.711L435.206,979.276L426.087,979.276L426.087,1020.42L435.206,1020.42L439.182,1027.3L476.159,1005.96L471.925,998.62L494.19,960.056L538.721,960.056L560.986,998.62L538.721,1037.18L494.19,1037.18L489.745,1029.49L452.768,1050.83L457.471,1058.98L435.206,1097.55L390.675,1097.55L368.41,1058.98L390.675,1020.42L398.915,1020.42ZM527.095,980.191L537.735,998.62L527.095,1017.05L505.815,1017.05L495.176,998.62L505.815,980.191L527.095,980.191ZM434.267,821.515L423.627,839.944L402.347,839.944L391.707,821.515L402.347,803.086L423.627,803.086L434.267,821.515Z"
            style="fill:none;stroke:rgb(23,24,26);stroke-width:3px;"
          />
        </g>
      </g>
    </g>
  </g>
</svg>
